<?xml version="1.0" encoding="UTF-8" standalone="no"?><!-- Generator: Gravit.io --><svg xmlns="http://www.w3.org/2000/svg" xmlns:xlink="http://www.w3.org/1999/xlink" style="isolation:isolate" viewBox="160 103.622 30 46.961" width="30pt" height="46.961pt"><path d=" M 172.037 130.394 L 164.522 150.583 L 170.397 150.583 L 170.476 150.583 L 170.476 150.583 L 170.397 150.583 L 177.719 128.726 L 179.501 123.406 L 179.501 123.406 L 179.816 122.466 C 179.976 121.99 180.042 121.2 179.964 120.704 Q 179.865 120.079 178.992 118.928 L 178.992 118.928 L 178.992 118.928 Q 177.788 117.341 175.698 116.819 L 175.698 116.819 L 175.698 116.819 Q 177.527 116.109 178.553 114.588 L 178.553 114.588 L 178.553 114.588 Q 179.58 113.067 179.58 111.07 L 179.58 111.07 L 179.58 111.07 Q 179.58 107.411 177.023 105.517 L 177.023 105.517 L 177.023 105.517 Q 174.466 103.622 169.519 103.622 L 169.519 103.622 L 160 103.622 L 160 130.799 L 169.582 130.799 L 169.582 130.799 L 171.341 126.241 Q 170.897 126.301 170.397 126.301 L 170.397 126.301 L 165.6 126.301 L 165.6 118.965 L 170.733 118.965 L 170.733 118.965 L 170.733 118.965 Q 174.596 119.021 174.596 122.754 L 174.596 122.754 L 174.596 122.754 Q 174.596 123.485 174.381 124.077 L 174.382 124.077 L 172.037 130.394 Z  M 174.611 144.984 L 182.161 144.984 L 184.046 150.583 L 184.046 150.583 L 190 150.583 L 180.943 126.387 L 178.418 133.803 L 178.418 133.803 L 180.649 140.448 L 176.155 140.448 L 174.611 144.984 L 174.611 144.984 Z  M 165.6 108.158 L 165.6 115.008 L 169.743 115.008 L 169.743 115.008 Q 173.98 114.934 173.98 111.63 L 173.98 111.63 L 173.98 111.63 Q 173.98 109.782 172.907 108.97 L 172.907 108.97 L 172.907 108.97 Q 171.834 108.158 169.519 108.158 L 169.519 108.158 L 165.6 108.158 L 165.6 108.158 L 165.6 108.158 L 165.6 108.158 Z " fill-rule="evenodd" fill="rgb(255,255,255)"/></svg>