<?xml version="1.0" encoding="UTF-8" standalone="no"?><!-- Generator: Gravit.io --><svg xmlns="http://www.w3.org/2000/svg" xmlns:xlink="http://www.w3.org/1999/xlink" style="isolation:isolate" viewBox="749.5 224.215 1039 792.671" width="1039pt" height="792.671pt"><g><path d=" M 1283.07 956.24 L 1283.07 960.97 C 1283.07 970.548 1290.846 978.324 1300.424 978.324 L 1529.795 978.324 C 1539.373 978.324 1547.149 986.1 1547.149 995.678 L 1547.149 999.531 C 1547.149 1009.109 1539.373 1016.885 1529.795 1016.885 L 1007.123 1016.885 C 997.545 1016.885 989.769 1009.109 989.769 999.531 L 989.769 995.678 C 989.769 986.1 997.545 978.324 1007.123 978.324 L 1082.808 978.324 C 1092.386 978.324 1100.163 970.548 1100.163 960.97 L 1100.163 956.24 C 1100.163 946.662 1092.386 938.885 1082.808 938.885 L 921.622 938.885 C 912.044 938.885 904.268 931.109 904.268 921.531 L 904.268 898.703 L 1633.732 898.703 L 1633.732 921.531 C 1633.732 931.109 1625.956 938.885 1616.378 938.885 L 1300.424 938.885 C 1290.846 938.885 1283.07 946.662 1283.07 956.24 Z " fill="rgb(179,142,129)"/><g><path d=" M 1245.313 302.437 C 1242.224 300.072 1236.717 289.782 1236.717 278.215 C 1236.717 258.492 1252.729 242.48 1272.452 242.48 C 1278.92 242.48 1284.989 244.202 1290.227 247.209 C 1300 233.307 1316.162 224.215 1334.431 224.215 C 1353.287 224.215 1369.898 233.9 1379.552 248.566 C 1386.173 244.047 1394.175 241.408 1402.789 241.408 C 1425.614 241.408 1444.146 259.94 1444.146 282.765 Q 1444.146 291.731 1441.562 296.714 C 1438.73 302.173 1431.439 306.605 1425.289 306.605 L 1257.614 306.605 C 1253.83 306.605 1248.318 304.737 1245.313 302.437 Z " fill="rgb(255,255,255)" fill-opacity="0.6"/></g><g><path d=" M 1605.692 335.005 C 1603.323 333.191 1599.099 325.298 1599.099 316.426 C 1599.099 301.299 1611.38 289.018 1626.508 289.018 C 1631.469 289.018 1636.124 290.339 1640.141 292.646 C 1647.637 281.982 1660.033 275.009 1674.045 275.009 C 1688.507 275.009 1701.248 282.437 1708.653 293.686 C 1713.731 290.22 1719.869 288.196 1726.475 288.196 C 1743.982 288.196 1758.196 302.41 1758.196 319.917 Q 1758.196 326.793 1756.214 330.615 C 1754.042 334.802 1748.449 338.202 1743.732 338.202 L 1615.127 338.202 C 1612.225 338.202 1607.997 336.769 1605.692 335.005 Z " fill="rgb(255,255,255)" fill-opacity="0.6"/></g><g><path d="M 944.312 337.923 L 1130.467 337.923 C 1132.856 337.923 1134.796 339.863 1134.796 342.253 L 1134.796 874.74 C 1134.796 877.129 1132.856 879.069 1130.467 879.069 L 944.312 879.069 C 941.923 879.069 939.983 877.129 939.983 874.74 L 939.983 342.253 C 939.983 339.863 941.923 337.923 944.312 337.923 Z" style="stroke:none;fill:#3473B7;stroke-miterlimit:10;"/><path d="M 965.958 316.278 L 1076.352 316.278 C 1078.741 316.278 1080.681 318.217 1080.681 320.607 L 1080.681 350.911 C 1080.681 353.3 1078.741 355.24 1076.352 355.24 L 965.958 355.24 C 963.569 355.24 961.629 353.3 961.629 350.911 L 961.629 320.607 C 961.629 318.217 963.569 316.278 965.958 316.278 Z" style="stroke:none;fill:#3473B7;stroke-miterlimit:10;"/></g><g><path d="M 1415.109 424.507 L 1563.383 424.507 C 1565.773 424.507 1567.712 426.447 1567.712 428.836 L 1567.712 874.74 C 1567.712 877.129 1565.773 879.069 1563.383 879.069 L 1415.109 879.069 C 1412.72 879.069 1410.78 877.129 1410.78 874.74 L 1410.78 428.836 C 1410.78 426.447 1412.72 424.507 1415.109 424.507 Z" style="stroke:none;fill:#3D80C8;stroke-miterlimit:10;"/><circle vector-effect="non-scaling-stroke" cx="1489.2463541666664" cy="481.3271276367931" r="78.46614583333326" fill="rgb(61,128,200)"/></g><g><path d=" M 857.729 370.392 L 1033.06 370.392 C 1035.45 370.392 1037.39 372.332 1037.39 374.721 L 1037.39 879.069 L 853.4 879.069 L 853.4 374.721 C 853.4 372.332 855.34 370.392 857.729 370.392 Z " fill="rgb(110,215,166)"/><rect x="945.395" y="370.392" width="91.995" height="508.197" transform="matrix(1,0,0,1,0,0)" fill="rgb(0,0,0)" fill-opacity="0.07"/><g><path d="M 879.375 402.861 L 903.185 402.861 C 905.575 402.861 907.515 404.801 907.515 407.19 L 907.515 463.469 C 907.515 465.859 905.575 467.798 903.185 467.798 L 879.375 467.798 C 876.986 467.798 875.046 465.859 875.046 463.469 L 875.046 407.19 C 875.046 404.801 876.986 402.861 879.375 402.861 Z" style="stroke:none;fill:#FFFFFF;stroke-miterlimit:10;opacity:0.75;"/><path d="M 879.375 576.028 L 903.185 576.028 C 905.575 576.028 907.515 577.967 907.515 580.357 L 907.515 636.636 C 907.515 639.025 905.575 640.965 903.185 640.965 L 879.375 640.965 C 876.986 640.965 875.046 639.025 875.046 636.636 L 875.046 580.357 C 875.046 577.967 876.986 576.028 879.375 576.028 Z" style="stroke:none;fill:#FFFFFF;stroke-miterlimit:10;opacity:0.75;"/><path d="M 879.375 489.444 L 903.185 489.444 C 905.575 489.444 907.515 491.384 907.515 493.773 L 907.515 550.053 C 907.515 552.442 905.575 554.382 903.185 554.382 L 879.375 554.382 C 876.986 554.382 875.046 552.442 875.046 550.053 L 875.046 493.773 C 875.046 491.384 876.986 489.444 879.375 489.444 Z" style="stroke:none;fill:#FFFFFF;stroke-miterlimit:10;opacity:0.75;"/><path d="M 879.375 662.611 L 903.185 662.611 C 905.575 662.611 907.515 664.551 907.515 666.94 L 907.515 723.219 C 907.515 725.609 905.575 727.548 903.185 727.548 L 879.375 727.548 C 876.986 727.548 875.046 725.609 875.046 723.219 L 875.046 666.94 C 875.046 664.551 876.986 662.611 879.375 662.611 Z" style="stroke:none;fill:#FFFFFF;stroke-miterlimit:10;opacity:0.75;"/><path d="M 879.375 749.194 L 903.185 749.194 C 905.575 749.194 907.515 751.134 907.515 753.523 L 907.515 809.803 C 907.515 812.192 905.575 814.132 903.185 814.132 L 879.375 814.132 C 876.986 814.132 875.046 812.192 875.046 809.803 L 875.046 753.523 C 875.046 751.134 876.986 749.194 879.375 749.194 Z" style="stroke:none;fill:#FFFFFF;stroke-miterlimit:10;opacity:0.75;"/><path d="M 933.49 402.861 L 957.3 402.861 C 959.689 402.861 961.629 404.801 961.629 407.19 L 961.629 463.469 C 961.629 465.859 959.689 467.798 957.3 467.798 L 933.49 467.798 C 931.1 467.798 929.16 465.859 929.16 463.469 L 929.16 407.19 C 929.16 404.801 931.1 402.861 933.49 402.861 Z" style="stroke:none;fill:#FFFFFF;stroke-miterlimit:10;opacity:0.75;"/><path d="M 933.49 576.028 L 957.3 576.028 C 959.689 576.028 961.629 577.967 961.629 580.357 L 961.629 636.636 C 961.629 639.025 959.689 640.965 957.3 640.965 L 933.49 640.965 C 931.1 640.965 929.16 639.025 929.16 636.636 L 929.16 580.357 C 929.16 577.967 931.1 576.028 933.49 576.028 Z" style="stroke:none;fill:#FFFFFF;stroke-miterlimit:10;opacity:0.75;"/><path d="M 933.49 489.444 L 957.3 489.444 C 959.689 489.444 961.629 491.384 961.629 493.773 L 961.629 550.053 C 961.629 552.442 959.689 554.382 957.3 554.382 L 933.49 554.382 C 931.1 554.382 929.16 552.442 929.16 550.053 L 929.16 493.773 C 929.16 491.384 931.1 489.444 933.49 489.444 Z" style="stroke:none;fill:#FFFFFF;stroke-miterlimit:10;opacity:0.75;"/><path d="M 933.49 662.611 L 957.3 662.611 C 959.689 662.611 961.629 664.551 961.629 666.94 L 961.629 723.219 C 961.629 725.609 959.689 727.548 957.3 727.548 L 933.49 727.548 C 931.1 727.548 929.16 725.609 929.16 723.219 L 929.16 666.94 C 929.16 664.551 931.1 662.611 933.49 662.611 Z" style="stroke:none;fill:#FFFFFF;stroke-miterlimit:10;opacity:0.75;"/><path d="M 933.49 749.194 L 957.3 749.194 C 959.689 749.194 961.629 751.134 961.629 753.523 L 961.629 809.803 C 961.629 812.192 959.689 814.132 957.3 814.132 L 933.49 814.132 C 931.1 814.132 929.16 812.192 929.16 809.803 L 929.16 753.523 C 929.16 751.134 931.1 749.194 933.49 749.194 Z" style="stroke:none;fill:#FFFFFF;stroke-miterlimit:10;opacity:0.75;"/><path d="M 987.604 402.861 L 1011.415 402.861 C 1013.804 402.861 1015.744 404.801 1015.744 407.19 L 1015.744 463.469 C 1015.744 465.859 1013.804 467.798 1011.415 467.798 L 987.604 467.798 C 985.215 467.798 983.275 465.859 983.275 463.469 L 983.275 407.19 C 983.275 404.801 985.215 402.861 987.604 402.861 Z" style="stroke:none;fill:#FFFFFF;stroke-miterlimit:10;opacity:0.75;"/><path d="M 987.604 576.028 L 1011.415 576.028 C 1013.804 576.028 1015.744 577.967 1015.744 580.357 L 1015.744 636.636 C 1015.744 639.025 1013.804 640.965 1011.415 640.965 L 987.604 640.965 C 985.215 640.965 983.275 639.025 983.275 636.636 L 983.275 580.357 C 983.275 577.967 985.215 576.028 987.604 576.028 Z" style="stroke:none;fill:#FFFFFF;stroke-miterlimit:10;opacity:0.75;"/><path d="M 987.604 489.444 L 1011.415 489.444 C 1013.804 489.444 1015.744 491.384 1015.744 493.773 L 1015.744 550.053 C 1015.744 552.442 1013.804 554.382 1011.415 554.382 L 987.604 554.382 C 985.215 554.382 983.275 552.442 983.275 550.053 L 983.275 493.773 C 983.275 491.384 985.215 489.444 987.604 489.444 Z" style="stroke:none;fill:#FFFFFF;stroke-miterlimit:10;opacity:0.75;"/><path d="M 987.604 662.611 L 1011.415 662.611 C 1013.804 662.611 1015.744 664.551 1015.744 666.94 L 1015.744 723.219 C 1015.744 725.609 1013.804 727.548 1011.415 727.548 L 987.604 727.548 C 985.215 727.548 983.275 725.609 983.275 723.219 L 983.275 666.94 C 983.275 664.551 985.215 662.611 987.604 662.611 Z" style="stroke:none;fill:#FFFFFF;stroke-miterlimit:10;opacity:0.75;"/><path d="M 987.604 749.194 L 1011.415 749.194 C 1013.804 749.194 1015.744 751.134 1015.744 753.523 L 1015.744 809.803 C 1015.744 812.192 1013.804 814.132 1011.415 814.132 L 987.604 814.132 C 985.215 814.132 983.275 812.192 983.275 809.803 L 983.275 753.523 C 983.275 751.134 985.215 749.194 987.604 749.194 Z" style="stroke:none;fill:#FFFFFF;stroke-miterlimit:10;opacity:0.75;"/></g></g><g><path d=" M 1095.833 489.444 L 1325.279 489.444 C 1327.668 489.444 1329.608 491.384 1329.608 493.773 L 1329.608 879.069 L 1091.504 879.069 L 1091.504 493.773 C 1091.504 491.384 1093.444 489.444 1095.833 489.444 Z " fill="rgb(104,200,172)"/><rect x="1210.556" y="489.444" width="119.052" height="391.79" transform="matrix(1,0,0,1,0,0)" fill="rgb(0,0,0)" fill-opacity="0.05"/><g><path d="M 1128.302 521.913 L 1195.404 521.913 C 1197.793 521.913 1199.733 523.853 1199.733 526.242 L 1199.733 560.876 C 1199.733 563.265 1197.793 565.205 1195.404 565.205 L 1128.302 565.205 C 1125.913 565.205 1123.973 563.265 1123.973 560.876 L 1123.973 526.242 C 1123.973 523.853 1125.913 521.913 1128.302 521.913 Z" style="stroke:none;fill:#EBEBEB;stroke-miterlimit:10;opacity:0.9;"/><path d="M 1128.302 651.788 L 1195.404 651.788 C 1197.793 651.788 1199.733 653.728 1199.733 656.117 L 1199.733 690.751 C 1199.733 693.14 1197.793 695.08 1195.404 695.08 L 1128.302 695.08 C 1125.913 695.08 1123.973 693.14 1123.973 690.751 L 1123.973 656.117 C 1123.973 653.728 1125.913 651.788 1128.302 651.788 Z" style="stroke:none;fill:#EBEBEB;stroke-miterlimit:10;opacity:0.9;"/><path d="M 1128.302 586.851 L 1195.404 586.851 C 1197.793 586.851 1199.733 588.79 1199.733 591.18 L 1199.733 625.813 C 1199.733 628.202 1197.793 630.142 1195.404 630.142 L 1128.302 630.142 C 1125.913 630.142 1123.973 628.202 1123.973 625.813 L 1123.973 591.18 C 1123.973 588.79 1125.913 586.851 1128.302 586.851 Z" style="stroke:none;fill:#EBEBEB;stroke-miterlimit:10;opacity:0.9;"/><path d="M 1128.302 716.726 L 1195.404 716.726 C 1197.793 716.726 1199.733 718.665 1199.733 721.055 L 1199.733 755.688 C 1199.733 758.077 1197.793 760.017 1195.404 760.017 L 1128.302 760.017 C 1125.913 760.017 1123.973 758.077 1123.973 755.688 L 1123.973 721.055 C 1123.973 718.665 1125.913 716.726 1128.302 716.726 Z" style="stroke:none;fill:#EBEBEB;stroke-miterlimit:10;opacity:0.9;"/><path d="M 1225.708 521.913 L 1292.81 521.913 C 1295.2 521.913 1297.14 523.853 1297.14 526.242 L 1297.14 560.876 C 1297.14 563.265 1295.2 565.205 1292.81 565.205 L 1225.708 565.205 C 1223.319 565.205 1221.379 563.265 1221.379 560.876 L 1221.379 526.242 C 1221.379 523.853 1223.319 521.913 1225.708 521.913 Z" style="stroke:none;fill:#EBEBEB;stroke-miterlimit:10;opacity:0.9;"/><path d="M 1225.708 651.788 L 1292.81 651.788 C 1295.2 651.788 1297.14 653.728 1297.14 656.117 L 1297.14 690.751 C 1297.14 693.14 1295.2 695.08 1292.81 695.08 L 1225.708 695.08 C 1223.319 695.08 1221.379 693.14 1221.379 690.751 L 1221.379 656.117 C 1221.379 653.728 1223.319 651.788 1225.708 651.788 Z" style="stroke:none;fill:#EBEBEB;stroke-miterlimit:10;opacity:0.9;"/><path d="M 1225.708 586.851 L 1292.81 586.851 C 1295.2 586.851 1297.14 588.79 1297.14 591.18 L 1297.14 625.813 C 1297.14 628.202 1295.2 630.142 1292.81 630.142 L 1225.708 630.142 C 1223.319 630.142 1221.379 628.202 1221.379 625.813 L 1221.379 591.18 C 1221.379 588.79 1223.319 586.851 1225.708 586.851 Z" style="stroke:none;fill:#EBEBEB;stroke-miterlimit:10;opacity:0.9;"/><path d="M 1225.708 716.726 L 1292.81 716.726 C 1295.2 716.726 1297.14 718.665 1297.14 721.055 L 1297.14 755.688 C 1297.14 758.077 1295.2 760.017 1292.81 760.017 L 1225.708 760.017 C 1223.319 760.017 1221.379 758.077 1221.379 755.688 L 1221.379 721.055 C 1221.379 718.665 1223.319 716.726 1225.708 716.726 Z" style="stroke:none;fill:#EBEBEB;stroke-miterlimit:10;opacity:0.9;"/></g></g><g><path d=" M 1377.229 467.798 L 1444.331 467.798 C 1446.721 467.798 1448.66 469.738 1448.66 472.128 L 1448.66 879.069 L 1372.9 879.069 L 1372.9 472.128 C 1372.9 469.738 1374.84 467.798 1377.229 467.798 Z " fill="rgb(92,171,186)"/><rect x="1410.78" y="467.798" width="37.88" height="411.271" transform="matrix(1,0,0,1,0,0)" fill="rgb(0,0,0)" fill-opacity="0.05"/><g><path d="M 1427.015 493.773 L 1427.015 550.053 C 1427.015 552.442 1425.075 554.382 1422.685 554.382 L 1398.875 554.382 C 1396.486 554.382 1394.546 552.442 1394.546 550.053 L 1394.546 493.773 C 1394.546 491.384 1396.486 489.444 1398.875 489.444 L 1422.685 489.444 C 1425.075 489.444 1427.015 491.384 1427.015 493.773 Z" style="stroke:none;fill:#FFFFFF;stroke-miterlimit:10;opacity:0.75;"/><path d="M 1427.015 666.94 L 1427.015 723.219 C 1427.015 725.609 1425.075 727.548 1422.685 727.548 L 1398.875 727.548 C 1396.486 727.548 1394.546 725.609 1394.546 723.219 L 1394.546 666.94 C 1394.546 664.551 1396.486 662.611 1398.875 662.611 L 1422.685 662.611 C 1425.075 662.611 1427.015 664.551 1427.015 666.94 Z" style="stroke:none;fill:#FFFFFF;stroke-miterlimit:10;opacity:0.75;"/><path d="M 1427.015 580.357 L 1427.015 636.636 C 1427.015 639.025 1425.075 640.965 1422.685 640.965 L 1398.875 640.965 C 1396.486 640.965 1394.546 639.025 1394.546 636.636 L 1394.546 580.357 C 1394.546 577.967 1396.486 576.028 1398.875 576.028 L 1422.685 576.028 C 1425.075 576.028 1427.015 577.967 1427.015 580.357 Z" style="stroke:none;fill:#FFFFFF;stroke-miterlimit:10;opacity:0.75;"/><path d="M 1427.015 753.523 L 1427.015 809.803 C 1427.015 812.192 1425.075 814.132 1422.685 814.132 L 1398.875 814.132 C 1396.486 814.132 1394.546 812.192 1394.546 809.803 L 1394.546 753.523 C 1394.546 751.134 1396.486 749.194 1398.875 749.194 L 1422.685 749.194 C 1425.075 749.194 1427.015 751.134 1427.015 753.523 Z" style="stroke:none;fill:#FFFFFF;stroke-miterlimit:10;opacity:0.75;"/></g></g><g><path d=" M 1507.104 554.382 L 1682.435 554.382 C 1684.825 554.382 1686.765 556.322 1686.765 558.711 L 1686.765 879.069 L 1502.775 879.069 L 1502.775 558.711 C 1502.775 556.322 1504.715 554.382 1507.104 554.382 Z " fill="rgb(87,169,223)"/><rect x="1594.77" y="554.382" width="91.995" height="324.207" transform="matrix(1,0,0,1,0,0)" fill="rgb(0,0,0)" fill-opacity="0.05"/><g><path d="M 1528.75 576.028 L 1585.029 576.028 C 1587.418 576.028 1589.358 577.967 1589.358 580.357 L 1589.358 604.167 C 1589.358 606.557 1587.418 608.496 1585.029 608.496 L 1528.75 608.496 C 1526.361 608.496 1524.421 606.557 1524.421 604.167 L 1524.421 580.357 C 1524.421 577.967 1526.361 576.028 1528.75 576.028 Z" style="stroke:none;fill:#FFFFFF;stroke-miterlimit:10;opacity:0.75;"/><path d="M 1528.75 662.611 L 1585.029 662.611 C 1587.418 662.611 1589.358 664.551 1589.358 666.94 L 1589.358 690.751 C 1589.358 693.14 1587.418 695.08 1585.029 695.08 L 1528.75 695.08 C 1526.361 695.08 1524.421 693.14 1524.421 690.751 L 1524.421 666.94 C 1524.421 664.551 1526.361 662.611 1528.75 662.611 Z" style="stroke:none;fill:#FFFFFF;stroke-miterlimit:10;opacity:0.75;"/><path d="M 1528.75 705.903 L 1585.029 705.903 C 1587.418 705.903 1589.358 707.842 1589.358 710.232 L 1589.358 734.042 C 1589.358 736.432 1587.418 738.371 1585.029 738.371 L 1528.75 738.371 C 1526.361 738.371 1524.421 736.432 1524.421 734.042 L 1524.421 710.232 C 1524.421 707.842 1526.361 705.903 1528.75 705.903 Z" style="stroke:none;fill:#FFFFFF;stroke-miterlimit:10;opacity:0.75;"/><path d="M 1604.51 576.028 L 1660.79 576.028 C 1663.179 576.028 1665.119 577.967 1665.119 580.357 L 1665.119 604.167 C 1665.119 606.557 1663.179 608.496 1660.79 608.496 L 1604.51 608.496 C 1602.121 608.496 1600.181 606.557 1600.181 604.167 L 1600.181 580.357 C 1600.181 577.967 1602.121 576.028 1604.51 576.028 Z" style="stroke:none;fill:#FFFFFF;stroke-miterlimit:10;opacity:0.75;"/><path d="M 1604.51 662.611 L 1660.79 662.611 C 1663.179 662.611 1665.119 664.551 1665.119 666.94 L 1665.119 690.751 C 1665.119 693.14 1663.179 695.08 1660.79 695.08 L 1604.51 695.08 C 1602.121 695.08 1600.181 693.14 1600.181 690.751 L 1600.181 666.94 C 1600.181 664.551 1602.121 662.611 1604.51 662.611 Z" style="stroke:none;fill:#FFFFFF;stroke-miterlimit:10;opacity:0.75;"/><path d="M 1604.51 705.903 L 1660.79 705.903 C 1663.179 705.903 1665.119 707.842 1665.119 710.232 L 1665.119 734.042 C 1665.119 736.432 1663.179 738.371 1660.79 738.371 L 1604.51 738.371 C 1602.121 738.371 1600.181 736.432 1600.181 734.042 L 1600.181 710.232 C 1600.181 707.842 1602.121 705.903 1604.51 705.903 Z" style="stroke:none;fill:#FFFFFF;stroke-miterlimit:10;opacity:0.75;"/><path d="M 1530.793 619.319 L 1658.746 619.319 C 1662.263 619.319 1665.119 622.175 1665.119 625.692 L 1665.119 645.416 C 1665.119 648.933 1662.263 651.788 1658.746 651.788 L 1530.793 651.788 C 1527.276 651.788 1524.421 648.933 1524.421 645.416 L 1524.421 625.692 C 1524.421 622.175 1527.276 619.319 1530.793 619.319 Z" style="stroke:none;fill:#FFFFFF;stroke-miterlimit:10;opacity:0.75;"/><path d="M 1530.793 749.194 L 1658.746 749.194 C 1662.263 749.194 1665.119 752.05 1665.119 755.567 L 1665.119 775.291 C 1665.119 778.808 1662.263 781.663 1658.746 781.663 L 1530.793 781.663 C 1527.276 781.663 1524.421 778.808 1524.421 775.291 L 1524.421 755.567 C 1524.421 752.05 1527.276 749.194 1530.793 749.194 Z" style="stroke:none;fill:#FFFFFF;stroke-miterlimit:10;opacity:0.75;"/></g></g><g><g><path d=" M 1648.343 418.013 L 1513.057 317.36 L 1307.421 388.791" fill="none" vector-effect="non-scaling-stroke" stroke-width="2" stroke="rgb(64,64,64)" stroke-linejoin="miter" stroke-linecap="square" stroke-miterlimit="3"/><circle vector-effect="non-scaling-stroke" cx="1642.9317708333333" cy="421.2599401367935" r="7.576041666666697" fill="rgb(213,110,51)"/><circle vector-effect="non-scaling-stroke" cx="1513.0567708333347" cy="323.8536901367934" r="7.576041666666697" fill="rgb(213,110,51)"/><circle vector-effect="non-scaling-stroke" cx="1307.421354166669" cy="388.7911901367929" r="7.576041666666697" fill="rgb(213,110,51)"/><g><g><line x1="1296.598" y1="432.083" x2="1296.598" y2="453.729" vector-effect="non-scaling-stroke" stroke-width="2" stroke="rgb(64,64,64)" stroke-linejoin="miter" stroke-linecap="square" stroke-miterlimit="3"/><line x1="1274.953" y1="432.083" x2="1274.953" y2="453.729" vector-effect="non-scaling-stroke" stroke-width="2" stroke="rgb(64,64,64)" stroke-linejoin="miter" stroke-linecap="square" stroke-miterlimit="3"/></g><path d="M 1305.676 421.26 L 1265.875 421.26 C 1264.912 421.26 1264.13 422.042 1264.13 423.006 L 1264.13 430.337 C 1264.13 431.301 1264.912 432.083 1265.875 432.083 L 1305.676 432.083 C 1306.639 432.083 1307.421 431.301 1307.421 430.337 L 1307.421 423.006 C 1307.421 422.042 1306.639 421.26 1305.676 421.26 Z" style="stroke:none;fill:#D56E33;stroke-miterlimit:10;"/><path d=" M 1305.257 453.729 L 1266.294 453.729 C 1265.1 453.729 1264.13 454.699 1264.13 455.893 L 1264.13 462.387 C 1264.13 463.582 1264.997 464.985 1266.066 465.52 L 1283.839 474.406 C 1284.908 474.941 1286.643 474.941 1287.712 474.406 L 1305.485 465.52 C 1306.554 464.985 1307.421 463.582 1307.421 462.387 L 1307.421 455.893 C 1307.421 454.699 1306.451 453.729 1305.257 453.729 Z " fill="rgb(254,225,127)"/></g></g><g><g><g><path d=" M 1565.548 421.26 L 1619.663 421.26 L 1619.663 449.4 C 1619.663 451.789 1617.723 453.729 1615.333 453.729 L 1569.877 453.729 C 1567.488 453.729 1565.548 451.789 1565.548 449.4 L 1565.548 421.26 Z " fill="rgb(64,64,64)"/><path d=" M 1556.348 421.26 L 1556.348 388.791 L 1513.057 421.26 L 1556.348 421.26 Z " fill="none" vector-effect="non-scaling-stroke" stroke-width="2" stroke="rgb(255,255,255)" stroke-linejoin="bevel" stroke-linecap="square" stroke-miterlimit="3"/><rect x="1561.76" y="383.38" width="32.469" height="43.292" transform="matrix(0,1,-1,0,1983.02,-1172.969)" fill="none" vector-effect="non-scaling-stroke" stroke-width="2" stroke="rgb(255,255,255)" stroke-linejoin="bevel" stroke-linecap="square" stroke-miterlimit="2"/><path d=" M 1642.932 421.26 L 1599.64 388.791 L 1599.64 421.26 L 1642.932 421.26 Z " fill="none" vector-effect="non-scaling-stroke" stroke-width="2" stroke="rgb(255,255,255)" stroke-linejoin="bevel" stroke-linecap="square" stroke-miterlimit="3"/><line x1="1599.64" y1="388.791" x2="1556.348" y2="421.26" vector-effect="non-scaling-stroke" stroke-width="2" stroke="rgb(255,255,255)" stroke-linejoin="bevel" stroke-linecap="square" stroke-miterlimit="3"/></g><path d=" M 1642.932 421.26 L 1513.057 421.26 L 1556.348 388.791 L 1599.64 388.791 L 1642.932 421.26 Z " fill="none" vector-effect="non-scaling-stroke" stroke-width="3" stroke="rgb(157,221,73)" stroke-linejoin="miter" stroke-linecap="square" stroke-miterlimit="3"/></g><g><g><rect x="1399.416" y="383.38" width="32.469" height="43.292" transform="matrix(0,1,-1,0,1820.676,-1010.625)" fill="none" vector-effect="non-scaling-stroke" stroke-width="2" stroke="rgb(255,255,255)" stroke-linejoin="round" stroke-linecap="square" stroke-miterlimit="2"/><rect x="1356.124" y="383.38" width="32.469" height="43.292" transform="matrix(0,1,-1,0,1777.384,-967.333)" fill="none" vector-effect="non-scaling-stroke" stroke-width="2" stroke="rgb(255,255,255)" stroke-linejoin="round" stroke-linecap="square" stroke-miterlimit="2"/><rect x="1312.833" y="383.38" width="32.469" height="43.292" transform="matrix(0,1,-1,0,1734.093,-924.042)" fill="none" vector-effect="non-scaling-stroke" stroke-width="2" stroke="rgb(255,255,255)" stroke-linejoin="round" stroke-linecap="square" stroke-miterlimit="2"/><rect x="1269.541" y="383.38" width="32.469" height="43.292" transform="matrix(0,1,-1,0,1690.801,-880.75)" fill="none" vector-effect="non-scaling-stroke" stroke-width="2" stroke="rgb(255,255,255)" stroke-linejoin="round" stroke-linecap="square" stroke-miterlimit="2"/><path d=" M 1480.588 421.26 L 1437.296 388.791 L 1437.296 421.26 L 1480.588 421.26 Z " fill="none" vector-effect="non-scaling-stroke" stroke-width="2" stroke="rgb(255,255,255)" stroke-linejoin="round" stroke-linecap="square" stroke-miterlimit="3"/><path d=" M 1437.296 388.791 L 1394.005 421.26 L 1394.005 388.791 L 1350.713 421.26 L 1350.713 388.791 L 1307.421 421.26 L 1307.421 388.791 L 1264.13 421.26" fill="none" vector-effect="non-scaling-stroke" stroke-width="2" stroke="rgb(255,255,255)" stroke-linejoin="round" stroke-linecap="square" stroke-miterlimit="3"/></g><path d=" M 1480.588 421.26 L 1437.296 388.791 L 1264.13 388.791 L 1220.838 421.26 L 1480.588 421.26 Z " fill="none" vector-effect="non-scaling-stroke" stroke-width="3" stroke="rgb(157,221,73)" stroke-linejoin="miter" stroke-linecap="square" stroke-miterlimit="3"/></g><g><g><rect x="1480.588" y="680.443" width="32.469" height="43.292" transform="matrix(1,0,0,1,0,0)" fill="none" vector-effect="non-scaling-stroke" stroke-width="2" stroke="rgb(255,255,255)" stroke-linejoin="bevel" stroke-linecap="square" stroke-miterlimit="2"/><rect x="1480.588" y="507.276" width="32.469" height="43.292" transform="matrix(1,0,0,1,0,0)" fill="none" vector-effect="non-scaling-stroke" stroke-width="2" stroke="rgb(255,255,255)" stroke-linejoin="bevel" stroke-linecap="square" stroke-miterlimit="2"/><rect x="1480.588" y="767.026" width="32.469" height="43.292" transform="matrix(1,0,0,1,0,0)" fill="none" vector-effect="non-scaling-stroke" stroke-width="2" stroke="rgb(255,255,255)" stroke-linejoin="bevel" stroke-linecap="square" stroke-miterlimit="2"/><rect x="1480.588" y="593.859" width="32.469" height="43.292" transform="matrix(1,0,0,1,0,0)" fill="none" vector-effect="non-scaling-stroke" stroke-width="2" stroke="rgb(255,255,255)" stroke-linejoin="bevel" stroke-linecap="square" stroke-miterlimit="2"/><rect x="1480.588" y="723.734" width="32.469" height="43.292" transform="matrix(1,0,0,1,0,0)" fill="none" vector-effect="non-scaling-stroke" stroke-width="2" stroke="rgb(255,255,255)" stroke-linejoin="bevel" stroke-linecap="square" stroke-miterlimit="2"/><rect x="1480.588" y="550.568" width="32.469" height="43.292" transform="matrix(1,0,0,1,0,0)" fill="none" vector-effect="non-scaling-stroke" stroke-width="2" stroke="rgb(255,255,255)" stroke-linejoin="bevel" stroke-linecap="square" stroke-miterlimit="2"/><rect x="1480.588" y="810.318" width="32.469" height="43.292" transform="matrix(1,0,0,1,0,0)" fill="none" vector-effect="non-scaling-stroke" stroke-width="2" stroke="rgb(255,255,255)" stroke-linejoin="bevel" stroke-linecap="square" stroke-miterlimit="2"/><path d=" M 1480.588 463.984 L 1513.057 507.276 L 1480.588 507.276 L 1513.057 550.568 L 1480.588 550.568 L 1513.057 593.859 L 1480.588 593.859 L 1513.057 637.151 L 1480.588 637.151 L 1513.057 680.443 L 1480.588 680.443 L 1513.057 723.734 L 1480.588 723.734 L 1513.057 767.026 L 1480.588 767.026 L 1513.057 810.318 L 1480.588 810.318 L 1513.057 853.609" fill="none" vector-effect="non-scaling-stroke" stroke-width="2" stroke="rgb(255,255,255)" stroke-linejoin="bevel" stroke-linecap="square" stroke-miterlimit="3"/><rect x="1480.588" y="637.151" width="32.469" height="43.292" transform="matrix(1,0,0,1,0,0)" fill="none" vector-effect="non-scaling-stroke" stroke-width="2" stroke="rgb(255,255,255)" stroke-linejoin="bevel" stroke-linecap="square" stroke-miterlimit="2"/><rect x="1480.588" y="463.984" width="32.469" height="43.292" transform="matrix(1,0,0,1,0,0)" fill="none" vector-effect="non-scaling-stroke" stroke-width="2" stroke="rgb(255,255,255)" stroke-linejoin="bevel" stroke-linecap="square" stroke-miterlimit="2"/><path d=" M 1513.057 420.693 L 1480.588 420.693 L 1511.688 327.393 C 1512.443 325.127 1513.057 325.226 1513.057 327.616 L 1513.057 420.693 Z " fill="none" vector-effect="non-scaling-stroke" stroke-width="2" stroke="rgb(255,255,255)" stroke-linejoin="bevel" stroke-linecap="square" stroke-miterlimit="3"/><line x1="1513.057" y1="377.401" x2="1495.74" y2="377.401" vector-effect="non-scaling-stroke" stroke-width="2" stroke="rgb(255,255,255)" stroke-linejoin="bevel" stroke-linecap="square" stroke-miterlimit="3"/><line x1="1513.057" y1="377.401" x2="1480.588" y2="420.693" vector-effect="non-scaling-stroke" stroke-width="2" stroke="rgb(255,255,255)" stroke-linejoin="bevel" stroke-linecap="square" stroke-miterlimit="3"/></g><path d=" M 1513.057 323.286 L 1513.057 853.609 L 1480.588 853.609 L 1480.588 420.693 L 1513.057 323.286 Z " fill="none" vector-effect="non-scaling-stroke" stroke-width="3" stroke="rgb(157,221,73)" stroke-linejoin="miter" stroke-linecap="square" stroke-miterlimit="3"/></g></g><g><path d="M 1509.81 421.26 L 1473.012 421.26 C 1471.22 421.26 1469.765 422.715 1469.765 424.507 L 1469.765 461.305 C 1469.765 463.097 1471.22 464.552 1473.012 464.552 L 1509.81 464.552 C 1511.602 464.552 1513.057 463.097 1513.057 461.305 L 1513.057 424.507 C 1513.057 422.715 1511.602 421.26 1509.81 421.26 Z" style="stroke:none;fill:#346763;stroke-miterlimit:10;"/><path d="M 1509.81 421.26 L 1473.012 421.26 C 1471.22 421.26 1469.765 422.715 1469.765 424.507 L 1469.765 461.305 C 1469.765 463.097 1471.22 464.552 1473.012 464.552 L 1509.81 464.552 C 1511.602 464.552 1513.057 463.097 1513.057 461.305 L 1513.057 424.507 C 1513.057 422.715 1511.602 421.26 1509.81 421.26 Z" style="fill:none;stroke:#346763;stroke-width:3;stroke-linecap:square;stroke-miterlimit:2;"/><path d=" M 1469.765 432.083 L 1498.987 432.083 C 1500.779 432.083 1502.234 433.538 1502.234 435.33 L 1502.234 450.482 C 1502.234 452.274 1500.779 453.729 1498.987 453.729 L 1469.765 453.729 L 1469.765 432.083 Z " fill="rgb(255,255,255)"/></g><path d="M 1461.648 853.609 L 1528.75 853.609 C 1531.139 853.609 1533.079 855.549 1533.079 857.938 L 1533.079 874.74 C 1533.079 877.129 1531.139 879.069 1528.75 879.069 L 1461.648 879.069 C 1459.259 879.069 1457.319 877.129 1457.319 874.74 L 1457.319 857.938 C 1457.319 855.549 1459.259 853.609 1461.648 853.609 Z" style="stroke:none;fill:#EBEBEB;stroke-linecap:square;stroke-miterlimit:2;"/></g><g><g><g><line x1="1182.417" y1="809.322" x2="1182.417" y2="878.589" vector-effect="non-scaling-stroke" stroke-width="3" stroke="rgb(51,51,51)" stroke-linejoin="round" stroke-linecap="round" stroke-miterlimit="3"/><line x1="1258.177" y1="809.322" x2="1258.177" y2="878.589" vector-effect="non-scaling-stroke" stroke-width="3" stroke="rgb(51,51,51)" stroke-linejoin="round" stroke-linecap="round" stroke-miterlimit="3"/><line x1="1182.417" y1="867.766" x2="1258.177" y2="867.766" vector-effect="non-scaling-stroke" stroke-width="3" stroke="rgb(51,51,51)" stroke-linejoin="round" stroke-linecap="round" stroke-miterlimit="3"/></g><path d="M 1175.899 813.651 L 1264.695 813.651 C 1267.071 813.651 1269 815.58 1269 817.956 L 1269 841.815 C 1269 844.191 1267.071 846.12 1264.695 846.12 L 1175.899 846.12 C 1173.523 846.12 1171.594 844.191 1171.594 841.815 L 1171.594 817.956 C 1171.594 815.58 1173.523 813.651 1175.899 813.651 Z" style="stroke:none;fill:#EBEBEB;stroke-linecap:square;stroke-miterlimit:2;"/><path d="M 1175.899 813.651 L 1264.695 813.651 C 1267.071 813.651 1269 815.58 1269 817.956 L 1269 841.815 C 1269 844.191 1267.071 846.12 1264.695 846.12 L 1175.899 846.12 C 1173.523 846.12 1171.594 844.191 1171.594 841.815 L 1171.594 817.956 C 1171.594 815.58 1173.523 813.651 1175.899 813.651 Z" style="stroke:none;fill:#FFFFFF;stroke-linecap:square;stroke-miterlimit:2;"/><clipPath id="_clipPath_dJu6I8Drrx2XhOq04ZDZb5Q130YZizBn"><path d="M 1175.899 813.651 L 1264.695 813.651 C 1267.071 813.651 1269 815.58 1269 817.956 L 1269 841.815 C 1269 844.191 1267.071 846.12 1264.695 846.12 L 1175.899 846.12 C 1173.523 846.12 1171.594 844.191 1171.594 841.815 L 1171.594 817.956 C 1171.594 815.58 1173.523 813.651 1175.899 813.651 Z" style="stroke:none;fill:#FFFFFF;stroke-linecap:square;stroke-miterlimit:2;"/></clipPath><g clip-path="url(#_clipPath_dJu6I8Drrx2XhOq04ZDZb5Q130YZizBn)"><g><path d=" M 1166.039 813.651 L 1184.077 813.651 L 1177.149 846.12 L 1159.111 846.12 L 1166.039 813.651 Z " fill="rgb(255,80,80)"/><path d=" M 1198.507 813.651 L 1216.546 813.651 L 1209.618 846.12 L 1191.579 846.12 L 1198.507 813.651 Z " fill="rgb(255,80,80)"/><path d=" M 1230.976 813.651 L 1249.014 813.651 L 1242.086 846.12 L 1224.048 846.12 L 1230.976 813.651 Z " fill="rgb(255,80,80)"/><path d=" M 1263.445 813.651 L 1281.483 813.651 L 1274.555 846.12 L 1256.517 846.12 L 1263.445 813.651 Z " fill="rgb(255,80,80)"/></g></g></g><g><g><line x1="933.49" y1="809.322" x2="933.49" y2="878.589" vector-effect="non-scaling-stroke" stroke-width="4" stroke="rgb(51,51,51)" stroke-linejoin="round" stroke-linecap="round" stroke-miterlimit="3"/><line x1="1009.25" y1="809.322" x2="1009.25" y2="878.589" vector-effect="non-scaling-stroke" stroke-width="4" stroke="rgb(51,51,51)" stroke-linejoin="round" stroke-linecap="round" stroke-miterlimit="3"/><line x1="933.49" y1="867.766" x2="1009.25" y2="867.766" vector-effect="non-scaling-stroke" stroke-width="3" stroke="rgb(51,51,51)" stroke-linejoin="round" stroke-linecap="round" stroke-miterlimit="3"/></g><path d="M 926.971 813.651 L 1015.768 813.651 C 1018.144 813.651 1020.073 815.58 1020.073 817.956 L 1020.073 841.815 C 1020.073 844.191 1018.144 846.12 1015.768 846.12 L 926.971 846.12 C 924.596 846.12 922.667 844.191 922.667 841.815 L 922.667 817.956 C 922.667 815.58 924.596 813.651 926.971 813.651 Z" style="stroke:none;fill:#EBEBEB;stroke-linecap:square;stroke-miterlimit:2;"/><path d="M 926.971 813.651 L 1015.768 813.651 C 1018.144 813.651 1020.073 815.58 1020.073 817.956 L 1020.073 841.815 C 1020.073 844.191 1018.144 846.12 1015.768 846.12 L 926.971 846.12 C 924.596 846.12 922.667 844.191 922.667 841.815 L 922.667 817.956 C 922.667 815.58 924.596 813.651 926.971 813.651 Z" style="stroke:none;fill:#FFFFFF;stroke-linecap:square;stroke-miterlimit:2;"/><clipPath id="_clipPath_20rPih2cRC7mYFpS2XvaBAqXBOJh8K5o"><path d="M 926.971 813.651 L 1015.768 813.651 C 1018.144 813.651 1020.073 815.58 1020.073 817.956 L 1020.073 841.815 C 1020.073 844.191 1018.144 846.12 1015.768 846.12 L 926.971 846.12 C 924.596 846.12 922.667 844.191 922.667 841.815 L 922.667 817.956 C 922.667 815.58 924.596 813.651 926.971 813.651 Z" style="stroke:none;fill:#FFFFFF;stroke-linecap:square;stroke-miterlimit:2;"/></clipPath><g clip-path="url(#_clipPath_20rPih2cRC7mYFpS2XvaBAqXBOJh8K5o)"><g><path d=" M 917.112 813.651 L 935.15 813.651 L 928.222 846.12 L 910.183 846.12 L 917.112 813.651 Z " fill="rgb(255,80,80)"/><path d=" M 949.58 813.651 L 967.619 813.651 L 960.69 846.12 L 942.652 846.12 L 949.58 813.651 Z " fill="rgb(255,80,80)"/><path d=" M 982.049 813.651 L 1000.087 813.651 L 993.159 846.12 L 975.121 846.12 L 982.049 813.651 Z " fill="rgb(255,80,80)"/><path d=" M 1014.518 813.651 L 1032.556 813.651 L 1025.628 846.12 L 1007.59 846.12 L 1014.518 813.651 Z " fill="rgb(255,80,80)"/></g></g></g></g><g><path d=" M 1557.916 867.331 L 1577.509 808.554 C 1578.075 806.854 1578.995 806.854 1579.562 808.554 L 1599.154 867.331 C 1599.721 869.031 1601.636 870.411 1603.428 870.411 L 1604.889 870.411 C 1607.069 870.411 1608.84 872.181 1608.84 874.361 L 1608.84 877.284 C 1608.84 879.464 1607.069 881.234 1604.889 881.234 L 1552.182 881.234 C 1550.001 881.234 1548.231 879.464 1548.231 877.284 L 1548.231 874.361 C 1548.231 872.181 1550.001 870.411 1552.182 870.411 L 1553.643 870.411 C 1555.435 870.411 1557.35 869.031 1557.916 867.331 Z " fill="rgb(255,80,80)"/><clipPath id="_clipPath_PKv6XhTP1S2kMPrWPL5CecQHjt5JBBvB"><path d=" M 1557.916 867.331 L 1577.851 807.527 C 1578.229 806.394 1578.842 806.394 1579.22 807.527 L 1599.154 867.331 C 1599.721 869.031 1601.636 870.411 1603.428 870.411 L 1604.889 870.411 C 1607.069 870.411 1608.84 872.181 1608.84 874.361 L 1608.84 877.284 C 1608.84 879.464 1607.069 881.234 1604.889 881.234 L 1552.182 881.234 C 1550.001 881.234 1548.231 879.464 1548.231 877.284 L 1548.231 874.361 C 1548.231 872.181 1550.001 870.411 1552.182 870.411 L 1553.643 870.411 C 1555.435 870.411 1557.35 869.031 1557.916 867.331 Z " fill="rgb(255,255,255)"/></clipPath><g clip-path="url(#_clipPath_PKv6XhTP1S2kMPrWPL5CecQHjt5JBBvB)"><g><rect x="1546.067" y="858.506" width="64.938" height="9.741" transform="matrix(1,0,0,1,0,0)" fill="rgb(235,235,235)"/></g><g><rect x="1543.902" y="839.566" width="64.938" height="9.741" transform="matrix(1,0,0,1,0,0)" fill="rgb(235,235,235)"/></g></g></g><g><path d=" M 1204.062 879.617 C 1218.925 855.336 1245.695 839.121 1276.223 839.121 C 1306.751 839.121 1333.522 855.336 1348.384 879.617 L 1204.062 879.617 Z " fill-rule="evenodd" fill="rgb(247,225,119)"/><clipPath id="_clipPath_BGwE4tEnmbgsE3sdMupZLb0kl72wV1IE"><rect x="1276.223" y="825.234" width="121.314" height="188.246" transform="matrix(1,0,0,1,0,0)" fill="rgb(255,255,255)"/></clipPath><g clip-path="url(#_clipPath_BGwE4tEnmbgsE3sdMupZLb0kl72wV1IE)"><path d=" M 1204.062 879.617 C 1218.925 855.336 1245.695 839.121 1276.223 839.121 C 1306.752 839.121 1333.522 855.336 1348.384 879.617 L 1204.062 879.617 Z " fill="rgb(0,0,0)" fill-opacity="0.12"/></g><g><path d="M 1239.274 860.711 L 1245.223 860.711 C 1246.076 860.711 1246.768 861.264 1246.768 861.944 L 1246.768 861.944 C 1246.768 862.625 1246.076 863.177 1245.223 863.177 L 1239.274 863.177 C 1238.421 863.177 1237.728 862.625 1237.728 861.944 L 1237.728 861.944 C 1237.728 861.264 1238.421 860.711 1239.274 860.711 Z" style="stroke:none;fill:#000000;stroke-linecap:square;stroke-miterlimit:2;opacity:0.15;"/><path d="M 1248.166 852.083 L 1252.767 852.083 C 1253.538 852.083 1254.164 852.635 1254.164 853.315 L 1254.164 853.315 C 1254.164 853.996 1253.538 854.548 1252.767 854.548 L 1248.166 854.548 C 1247.394 854.548 1246.768 853.996 1246.768 853.315 L 1246.768 853.315 C 1246.768 852.635 1247.394 852.083 1248.166 852.083 Z" style="stroke:none;fill:#000000;stroke-linecap:square;stroke-miterlimit:2;opacity:0.15;"/><path d="M 1253.918 866.875 L 1258.519 866.875 C 1259.291 866.875 1259.917 867.427 1259.917 868.108 L 1259.917 868.108 C 1259.917 868.788 1259.291 869.34 1258.519 869.34 L 1253.918 869.34 C 1253.147 869.34 1252.521 868.788 1252.521 868.108 L 1252.521 868.108 C 1252.521 867.427 1253.147 866.875 1253.918 866.875 Z" style="stroke:none;fill:#000000;stroke-linecap:square;stroke-miterlimit:2;opacity:0.15;"/><path d="M 1265.167 860.711 L 1267.815 860.711 C 1268.445 860.711 1268.957 861.223 1268.957 861.853 L 1268.957 862.036 C 1268.957 862.666 1268.445 863.177 1267.815 863.177 L 1265.167 863.177 C 1264.537 863.177 1264.026 862.666 1264.026 862.036 L 1264.026 861.853 C 1264.026 861.223 1264.537 860.711 1265.167 860.711 Z" style="stroke:none;fill:#000000;stroke-linecap:square;stroke-miterlimit:2;opacity:0.15;"/><path d="M 1283.503 860.711 L 1288.104 860.711 C 1288.875 860.711 1289.502 861.264 1289.502 861.944 L 1289.502 861.944 C 1289.502 862.625 1288.875 863.177 1288.104 863.177 L 1283.503 863.177 C 1282.732 863.177 1282.105 862.625 1282.105 861.944 L 1282.105 861.944 C 1282.105 861.264 1282.732 860.711 1283.503 860.711 Z" style="stroke:none;fill:#000000;stroke-linecap:square;stroke-miterlimit:2;opacity:0.15;"/><path d="M 1299.175 851.261 L 1301.823 851.261 C 1302.453 851.261 1302.964 851.772 1302.964 852.402 L 1302.964 852.585 C 1302.964 853.215 1302.453 853.726 1301.823 853.726 L 1299.175 853.726 C 1298.545 853.726 1298.034 853.215 1298.034 852.585 L 1298.034 852.402 C 1298.034 851.772 1298.545 851.261 1299.175 851.261 Z" style="stroke:none;fill:#000000;stroke-linecap:square;stroke-miterlimit:2;opacity:0.15;"/><path d="M 1311.364 869.34 L 1315.303 869.34 C 1316.03 869.34 1316.621 869.893 1316.621 870.573 L 1316.621 870.573 C 1316.621 871.253 1316.03 871.806 1315.303 871.806 L 1311.364 871.806 C 1310.637 871.806 1310.046 871.253 1310.046 870.573 L 1310.046 870.573 C 1310.046 869.893 1310.637 869.34 1311.364 869.34 Z" style="stroke:none;fill:#000000;stroke-linecap:square;stroke-miterlimit:2;opacity:0.15;"/><path d="M 1303.374 862.355 L 1309.323 862.355 C 1310.176 862.355 1310.868 862.907 1310.868 863.588 L 1310.868 863.588 C 1310.868 864.268 1310.176 864.82 1309.323 864.82 L 1303.374 864.82 C 1302.521 864.82 1301.828 864.268 1301.828 863.588 L 1301.828 863.588 C 1301.828 862.907 1302.521 862.355 1303.374 862.355 Z" style="stroke:none;fill:#000000;stroke-linecap:square;stroke-miterlimit:2;opacity:0.15;"/><path d="M 1224.077 866.875 L 1226.725 866.875 C 1227.355 866.875 1227.867 867.386 1227.867 868.016 L 1227.867 868.199 C 1227.867 868.829 1227.355 869.34 1226.725 869.34 L 1224.077 869.34 C 1223.447 869.34 1222.936 868.829 1222.936 868.199 L 1222.936 868.016 C 1222.936 867.386 1223.447 866.875 1224.077 866.875 Z" style="stroke:none;fill:#000000;stroke-linecap:square;stroke-miterlimit:2;opacity:0.15;"/></g></g><g><path d=" M 1302.296 879.872 C 1323.516 845.205 1361.739 822.053 1405.326 822.053 C 1448.913 822.053 1487.135 845.205 1508.356 879.872 L 1302.296 879.872 Z " fill-rule="evenodd" fill="rgb(247,225,119)"/><clipPath id="_clipPath_4KWln91qnZxKJXY4VL2dnhtdC4DCqdwW"><rect x="1405.326" y="810.5" width="173.21" height="155.827" transform="matrix(1,0,0,1,0,0)" fill="rgb(255,255,255)"/></clipPath><g clip-path="url(#_clipPath_4KWln91qnZxKJXY4VL2dnhtdC4DCqdwW)"><path d=" M 1302.296 879.5 C 1323.516 845.021 1361.739 821.995 1405.326 821.995 C 1448.913 821.995 1487.135 845.021 1508.356 879.5 L 1302.296 879.5 Z " fill="rgb(0,0,0)" fill-opacity="0.12"/></g><g><path d="M 1356.536 856.341 L 1364.371 856.341 C 1365.494 856.341 1366.406 857.069 1366.406 857.965 L 1366.406 857.965 C 1366.406 858.861 1365.494 859.588 1364.371 859.588 L 1356.536 859.588 C 1355.413 859.588 1354.501 858.861 1354.501 857.965 L 1354.501 857.965 C 1354.501 857.069 1355.413 856.341 1356.536 856.341 Z" style="stroke:none;fill:#000000;stroke-linecap:square;stroke-miterlimit:2;opacity:0.15;"/><path d="M 1368.247 844.977 L 1374.306 844.977 C 1375.322 844.977 1376.147 845.705 1376.147 846.601 L 1376.147 846.601 C 1376.147 847.497 1375.322 848.224 1374.306 848.224 L 1368.247 848.224 C 1367.231 848.224 1366.406 847.497 1366.406 846.601 L 1366.406 846.601 C 1366.406 845.705 1367.231 844.977 1368.247 844.977 Z" style="stroke:none;fill:#000000;stroke-linecap:square;stroke-miterlimit:2;opacity:0.15;"/><path d="M 1375.823 864.458 L 1381.882 864.458 C 1382.898 864.458 1383.723 865.186 1383.723 866.082 L 1383.723 866.082 C 1383.723 866.978 1382.898 867.705 1381.882 867.705 L 1375.823 867.705 C 1374.807 867.705 1373.982 866.978 1373.982 866.082 L 1373.982 866.082 C 1373.982 865.186 1374.807 864.458 1375.823 864.458 Z" style="stroke:none;fill:#000000;stroke-linecap:square;stroke-miterlimit:2;opacity:0.15;"/><path d="M 1390.637 856.341 L 1394.125 856.341 C 1394.955 856.341 1395.628 857.015 1395.628 857.844 L 1395.628 858.085 C 1395.628 858.915 1394.955 859.588 1394.125 859.588 L 1390.637 859.588 C 1389.808 859.588 1389.134 858.915 1389.134 858.085 L 1389.134 857.844 C 1389.134 857.015 1389.808 856.341 1390.637 856.341 Z" style="stroke:none;fill:#000000;stroke-linecap:square;stroke-miterlimit:2;opacity:0.15;"/><path d="M 1414.786 856.341 L 1420.845 856.341 C 1421.861 856.341 1422.685 857.069 1422.685 857.965 L 1422.685 857.965 C 1422.685 858.861 1421.861 859.588 1420.845 859.588 L 1414.786 859.588 C 1413.77 859.588 1412.945 858.861 1412.945 857.965 L 1412.945 857.965 C 1412.945 857.069 1413.77 856.341 1414.786 856.341 Z" style="stroke:none;fill:#000000;stroke-linecap:square;stroke-miterlimit:2;opacity:0.15;"/><path d="M 1435.425 843.895 L 1438.913 843.895 C 1439.742 843.895 1440.416 844.568 1440.416 845.398 L 1440.416 845.639 C 1440.416 846.468 1439.742 847.142 1438.913 847.142 L 1435.425 847.142 C 1434.595 847.142 1433.922 846.468 1433.922 845.639 L 1433.922 845.398 C 1433.922 844.568 1434.595 843.895 1435.425 843.895 Z" style="stroke:none;fill:#000000;stroke-linecap:square;stroke-miterlimit:2;opacity:0.15;"/><path d="M 1451.478 867.705 L 1456.666 867.705 C 1457.623 867.705 1458.401 868.433 1458.401 869.329 L 1458.401 869.329 C 1458.401 870.225 1457.623 870.952 1456.666 870.952 L 1451.478 870.952 C 1450.52 870.952 1449.743 870.225 1449.743 869.329 L 1449.743 869.329 C 1449.743 868.433 1450.52 867.705 1451.478 867.705 Z" style="stroke:none;fill:#000000;stroke-linecap:square;stroke-miterlimit:2;opacity:0.15;"/><path d="M 1440.955 858.506 L 1448.79 858.506 C 1449.913 858.506 1450.825 859.233 1450.825 860.129 L 1450.825 860.129 C 1450.825 861.025 1449.913 861.753 1448.79 861.753 L 1440.955 861.753 C 1439.832 861.753 1438.92 861.025 1438.92 860.129 L 1438.92 860.129 C 1438.92 859.233 1439.832 858.506 1440.955 858.506 Z" style="stroke:none;fill:#000000;stroke-linecap:square;stroke-miterlimit:2;opacity:0.15;"/><path d="M 1336.523 864.458 L 1340.011 864.458 C 1340.84 864.458 1341.514 865.132 1341.514 865.961 L 1341.514 866.202 C 1341.514 867.032 1340.84 867.705 1340.011 867.705 L 1336.523 867.705 C 1335.693 867.705 1335.02 867.032 1335.02 866.202 L 1335.02 865.961 C 1335.02 865.132 1335.693 864.458 1336.523 864.458 Z" style="stroke:none;fill:#000000;stroke-linecap:square;stroke-miterlimit:2;opacity:0.15;"/></g></g><path d="M 758.445 879.069 L 1779.555 879.069 C 1784.492 879.069 1788.5 883.077 1788.5 888.014 L 1788.5 890.688 C 1788.5 895.625 1784.492 899.633 1779.555 899.633 L 758.445 899.633 C 753.508 899.633 749.5 895.625 749.5 890.688 L 749.5 888.014 C 749.5 883.077 753.508 879.069 758.445 879.069 Z" style="stroke:none;fill:#AA6666;stroke-linecap:square;stroke-miterlimit:2;"/><g><path d="M 1035.158 887.01 L 1138.368 887.01 C 1144.902 887.01 1150.206 892.315 1150.206 898.849 L 1150.206 900.446 C 1150.206 906.98 1144.902 912.284 1138.368 912.284 L 1035.158 912.284 C 1028.624 912.284 1023.32 906.98 1023.32 900.446 L 1023.32 898.849 C 1023.32 892.315 1028.624 887.01 1035.158 887.01 Z" style="stroke:none;fill:#F7E177;stroke-linecap:square;stroke-miterlimit:2;"/><path d="M 1164.186 935.332 L 1213.634 935.332 C 1221.35 935.332 1227.615 940.995 1227.615 947.969 L 1227.615 947.969 C 1227.615 954.944 1221.35 960.606 1213.634 960.606 L 1164.186 960.606 C 1156.471 960.606 1150.206 954.944 1150.206 947.969 L 1150.206 947.969 C 1150.206 940.995 1156.471 935.332 1164.186 935.332 Z" style="stroke:none;fill:#F7E177;stroke-linecap:square;stroke-miterlimit:2;"/><path d="M 1272.591 910.059 L 1437.222 910.059 C 1444.133 910.059 1449.743 915.669 1449.743 922.579 L 1449.743 922.812 C 1449.743 929.722 1444.133 935.332 1437.222 935.332 L 1272.591 935.332 C 1265.681 935.332 1260.071 929.722 1260.071 922.812 L 1260.071 922.579 C 1260.071 915.669 1265.681 910.059 1272.591 910.059 Z" style="stroke:none;fill:#F7E177;stroke-linecap:square;stroke-miterlimit:2;"/></g></g></svg>