<svg viewBox="395.5 170.165 1039 675.418" width="1385.333" height="900.557"><style><![CDATA[.B{opacity:.75}.C{stroke-miterlimit:3}.D{fill:#fff}.E{stroke-width:2}.F{stroke-linecap:square}.G{stroke:#fff}.H{stroke-width:3}.I{fill:#ebebeb}.J{stroke-linejoin:bevel}.K{stroke-miterlimit:2}.L{stroke-linejoin:round}.M{opacity:.15}.N{fill-opacity:.05}.O{stroke:#9ddd49}.P{fill:#ff5050}.Q{stroke-linecap:round}.R{fill-rule:evenodd}]]></style><path d="M891.313 248.387c-3.1-2.365-8.596-12.655-8.596-24.222 0-19.723 16.012-35.735 35.735-35.735 6.468 0 12.537 1.722 17.775 4.73 9.773-13.902 25.935-22.994 44.204-22.994 18.856 0 35.467 9.685 45.12 24.35a41.08 41.08 0 0 1 23.237-7.158c22.825 0 41.357 18.532 41.357 41.357q0 8.966-2.584 13.95c-2.832 5.46-10.123 9.9-16.273 9.9H903.614c-3.784 0-9.296-1.868-12.3-4.168zm360.38 32.568c-2.37-1.814-6.593-9.707-6.593-18.58 0-15.127 12.28-27.408 27.4-27.408a27.29 27.29 0 0 1 13.633 3.628c7.496-10.664 19.892-17.637 33.904-17.637 14.462 0 27.203 7.428 34.608 18.677 5.078-3.466 11.216-5.5 17.822-5.5 17.507 0 31.72 14.214 31.72 31.72q0 6.876-1.982 10.698c-2.172 4.187-7.765 7.587-12.482 7.587h-128.605c-2.902 0-7.13-1.433-9.435-3.197z" fill-opacity=".6" class="D"/><g fill="#3473b7"><path d="M590.312 283.873h186.155c2.39 0 4.33 1.94 4.33 4.33V820.7c0 2.39-1.94 4.33-4.33 4.33H590.312c-2.39 0-4.33-1.94-4.33-4.33V288.203c0-2.4 1.94-4.33 4.33-4.33z"/><path d="M611.958 262.228h110.394a4.33 4.33 0 0 1 4.329 4.329v30.304c0 2.39-1.94 4.33-4.33 4.33H611.958c-2.39 0-4.33-1.94-4.33-4.33v-30.304a4.33 4.33 0 0 1 4.329-4.329z"/></g><g fill="#3d80c8"><path d="M1061.11 370.457h148.274a4.33 4.33 0 0 1 4.329 4.329V820.7a4.33 4.33 0 0 1-4.329 4.329H1061.11c-2.39 0-4.33-1.94-4.33-4.33V374.786c0-2.39 1.94-4.33 4.33-4.33z"/><circle vector-effect="non-scaling-stroke" cx="1135.246" cy="427.277" r="78.466"/></g><path d="M503.73 316.342h175.33c2.4 0 4.33 1.94 4.33 4.33V825.02h-184V320.67c0-2.39 1.94-4.33 4.33-4.33z" fill="#6ed7a6"/><path fill-opacity=".07" d="M591.395 316.342H683.4V824.54h-91.995z"/><g class="D"><path d="M525.375 348.8h23.8c2.4 0 4.33 1.94 4.33 4.33v56.28a4.33 4.33 0 0 1-4.33 4.329h-23.8a4.33 4.33 0 0 1-4.329-4.329v-56.28c0-2.4 1.94-4.33 4.33-4.33zm0 173.168h23.8a4.33 4.33 0 0 1 4.33 4.329v56.28c0 2.4-1.94 4.33-4.33 4.33h-23.8c-2.4 0-4.33-1.94-4.33-4.33v-56.28a4.33 4.33 0 0 1 4.329-4.329z" class="B"/><use xlink:href="#G" class="B"/><path d="M525.375 608.56h23.8c2.4 0 4.33 1.94 4.33 4.33v56.28a4.33 4.33 0 0 1-4.33 4.329h-23.8a4.33 4.33 0 0 1-4.329-4.329V612.9c0-2.39 1.94-4.33 4.33-4.33z" class="B"/><use xlink:href="#G" y="259.75" class="B"/><path d="M579.5 348.8h23.8c2.4 0 4.33 1.94 4.33 4.33v56.28a4.33 4.33 0 0 1-4.329 4.329h-23.8a4.33 4.33 0 0 1-4.33-4.329v-56.28c0-2.4 1.94-4.33 4.33-4.33zm0 173.168h23.8a4.33 4.33 0 0 1 4.329 4.329v56.28c0 2.4-1.94 4.33-4.33 4.33h-23.8c-2.4 0-4.33-1.94-4.33-4.33v-56.28a4.33 4.33 0 0 1 4.33-4.329z" class="B"/><use xlink:href="#H" class="B"/><path d="M579.5 608.56h23.8c2.39 0 4.33 1.94 4.33 4.33v56.28a4.33 4.33 0 0 1-4.329 4.329h-23.8a4.33 4.33 0 0 1-4.33-4.329V612.9c0-2.39 1.94-4.33 4.33-4.33z" class="B"/><use xlink:href="#H" y="259.75" class="B"/><path d="M633.604 348.8h23.8c2.4 0 4.33 1.94 4.33 4.33v56.28a4.33 4.33 0 0 1-4.329 4.329h-23.8a4.33 4.33 0 0 1-4.329-4.329v-56.28c0-2.4 1.94-4.33 4.33-4.33zm0 173.168h23.8a4.33 4.33 0 0 1 4.329 4.329v56.28c0 2.4-1.94 4.33-4.33 4.33h-23.8c-2.4 0-4.33-1.94-4.33-4.33v-56.28a4.33 4.33 0 0 1 4.329-4.329z" class="B"/><use xlink:href="#I" class="B"/><path d="M633.604 608.56h23.81c2.39 0 4.33 1.94 4.33 4.33v56.28a4.33 4.33 0 0 1-4.329 4.329h-23.81a4.33 4.33 0 0 1-4.329-4.329V612.9c0-2.39 1.94-4.33 4.33-4.33z" class="B"/><use xlink:href="#I" y="259.75" class="B"/></g><path d="M741.833 435.394H971.28c2.39 0 4.33 1.94 4.33 4.33V825.02H737.504V439.723c0-2.39 1.94-4.33 4.33-4.33z" fill="#68c8ac"/><path d="M856.556 435.394h119.052v391.8H856.556z" class="N"/><path d="M774.302 467.863h67.102c2.4 0 4.33 1.94 4.33 4.33v34.634c0 2.4-1.94 4.33-4.33 4.33h-67.102c-2.4 0-4.33-1.94-4.33-4.33v-34.634c0-2.4 1.94-4.33 4.33-4.33zm0 129.875h67.102c2.4 0 4.33 1.94 4.33 4.33V636.7c0 2.4-1.94 4.33-4.33 4.33h-67.102c-2.4 0-4.33-1.94-4.33-4.33v-34.634c0-2.4 1.94-4.33 4.33-4.33zm0-64.938h67.102a4.33 4.33 0 0 1 4.329 4.329v34.633c0 2.4-1.94 4.33-4.33 4.33H774.3c-2.4 0-4.33-1.94-4.33-4.33V537.13a4.33 4.33 0 0 1 4.329-4.329zm0 129.876h67.102a4.33 4.33 0 0 1 4.329 4.329v34.633c0 2.4-1.94 4.33-4.33 4.33H774.3c-2.4 0-4.33-1.94-4.33-4.33v-34.633a4.33 4.33 0 0 1 4.329-4.329zm97.406-194.813H938.8c2.4 0 4.33 1.94 4.33 4.33v34.634c0 2.4-1.94 4.33-4.33 4.33h-67.102c-2.4 0-4.33-1.94-4.33-4.33v-34.634c0-2.4 1.94-4.33 4.33-4.33zm0 129.875H938.8c2.4 0 4.33 1.94 4.33 4.33V636.7c0 2.4-1.94 4.33-4.33 4.33h-67.102c-2.4 0-4.33-1.94-4.33-4.33v-34.634c0-2.4 1.94-4.33 4.33-4.33zm0-64.938H938.8a4.33 4.33 0 0 1 4.33 4.329v34.633c0 2.4-1.94 4.33-4.33 4.33h-67.102c-2.4 0-4.33-1.94-4.33-4.33V537.13a4.33 4.33 0 0 1 4.329-4.329zm0 129.876H938.8a4.33 4.33 0 0 1 4.33 4.329v34.633c0 2.4-1.94 4.33-4.33 4.33h-67.102c-2.4 0-4.33-1.94-4.33-4.33v-34.633a4.33 4.33 0 0 1 4.329-4.329z" opacity=".9" class="I"/><path d="M1023.23 413.748h67.102a4.33 4.33 0 0 1 4.329 4.33v406.94h-75.76v-406.94c0-2.4 1.94-4.33 4.33-4.33z" fill="#5cabba"/><path d="M1056.78 413.748h37.88v411.27h-37.88z" class="N"/><g class="D"><use xlink:href="#J" class="B"/><path d="M1073.015 612.9v56.28a4.33 4.33 0 0 1-4.33 4.329h-23.8a4.33 4.33 0 0 1-4.329-4.329V612.9c0-2.4 1.94-4.33 4.33-4.33h23.8c2.4 0 4.33 1.94 4.33 4.33zm0-86.593v56.28c0 2.4-1.94 4.33-4.33 4.33h-23.8c-2.4 0-4.33-1.94-4.33-4.33v-56.28a4.33 4.33 0 0 1 4.329-4.329h23.8a4.33 4.33 0 0 1 4.33 4.329z" class="B"/><use xlink:href="#J" y="259.75" class="B"/></g><path d="M1153.104 500.332h175.33c2.4 0 4.33 1.94 4.33 4.33V825.02h-184V504.66c0-2.39 1.94-4.33 4.33-4.33z" fill="#57a9df"/><path d="M1240.77 500.332h91.995V824.54h-91.995z" class="N"/><g class="D"><use xlink:href="#K" class="B"/><use xlink:href="#L" class="B"/><use xlink:href="#K" y="129.875" class="B"/><use xlink:href="#K" x="75.75" class="B"/><use xlink:href="#L" x="75.75" class="B"/><use xlink:href="#K" x="75.75" y="129.875" class="B"/><use xlink:href="#M" class="B"/><use xlink:href="#M" y="129.874" class="B"/></g><path d="M1294.343 363.963L1159.057 263.3 953.42 334.74" fill="none" vector-effect="non-scaling-stroke" stroke="#404040" class="C E F"/><g fill="#d56e33"><circle vector-effect="non-scaling-stroke" cx="1288.932" cy="367.21" r="7.576"/><circle vector-effect="non-scaling-stroke" cx="1159.057" cy="269.804" r="7.576"/><circle vector-effect="non-scaling-stroke" cx="953.421" cy="334.741" r="7.576"/></g><path vector-effect="non-scaling-stroke" d="M942.598 378.033v21.646m-21.645-21.646v21.646" stroke="#404040" class="C E F"/><path d="M951.676 367.2h-39.8c-.963 0-1.745.782-1.745 1.746v7.33c0 .964.782 1.746 1.745 1.746h39.8c.963 0 1.745-.782 1.745-1.746v-7.33c0-.964-.782-1.746-1.745-1.746z" fill="#d56e33"/><path d="M951.257 399.68h-38.963c-1.194 0-2.164.97-2.164 2.164v6.494c0 1.195.867 2.598 1.936 3.133l17.773 8.886c1.07.535 2.804.535 3.873 0l17.773-8.886c1.07-.535 1.936-1.938 1.936-3.133v-6.494c0-1.194-.97-2.164-2.164-2.164z" fill="#fee17f"/><path d="M1211.548 367.2h54.115v28.14c0 2.39-1.94 4.33-4.33 4.33h-45.456c-2.39 0-4.33-1.94-4.33-4.33V367.2z" fill="#404040"/><g fill="none" class="E G J"><path d="M1202.348 367.2v-32.47l-43.29 32.47h43.29z" vector-effect="non-scaling-stroke" class="C"/><path vector-effect="non-scaling-stroke" d="M1245.64 334.74v32.47h-43.292v-32.47z" class="K"/><path d="M1288.932 367.2l-43.292-32.47v32.47h43.292z" vector-effect="non-scaling-stroke" class="C"/></g><path vector-effect="non-scaling-stroke" d="M1245.64 334.74l-43.292 32.47" class="C E F G J"/><g fill="none"><path d="M1288.932 367.2h-129.875l43.29-32.47h43.292l43.292 32.47z" vector-effect="non-scaling-stroke" class="C H O"/><g class="E G L"><g class="K"><path vector-effect="non-scaling-stroke" d="M1083.296 334.74v32.47h-43.292v-32.47z"/><path vector-effect="non-scaling-stroke" d="M1040.004 334.74v32.47h-43.292v-32.47z"/><path vector-effect="non-scaling-stroke" d="M996.713 334.74v32.47H953.42v-32.47z"/><path vector-effect="non-scaling-stroke" d="M953.42 334.74v32.47H910.13v-32.47z"/></g><g class="C"><path d="M1126.588 367.2l-43.292-32.47v32.47h43.292z" vector-effect="non-scaling-stroke"/><path d="M1083.296 334.74l-43.29 32.47v-32.47l-43.292 32.47v-32.47L953.42 367.2v-32.47l-43.29 32.47" vector-effect="non-scaling-stroke" class="F"/></g></g><path d="M1126.588 367.2l-43.292-32.47H910.13l-43.292 32.47h259.75z" vector-effect="non-scaling-stroke" class="C H O"/><g class="E G J"><g class="K"><path vector-effect="non-scaling-stroke" d="M1126.588 626.393h32.47v43.292h-32.47zm0-173.167h32.47v43.292h-32.47zm0 259.75h32.47v43.292h-32.47zm0-173.166h32.47v43.3h-32.47z"/><path vector-effect="non-scaling-stroke" d="M1126.588 669.684h32.47v43.292h-32.47zm0-173.166h32.47V539.8h-32.47zm0 259.75h32.47v43.292h-32.47z"/></g><path d="M1126.588 409.934l32.47 43.292h-32.47l32.47 43.292h-32.47l32.47 43.29h-32.47l32.47 43.292h-32.47l32.47 43.292h-32.47l32.47 43.29h-32.47l32.47 43.292h-32.47l32.47 43.292h-32.47l32.47 43.29" vector-effect="non-scaling-stroke" class="C F"/><path vector-effect="non-scaling-stroke" d="M1126.588 583.1h32.47v43.292h-32.47zm0-173.166h32.47v43.292h-32.47z" class="K"/><path d="M1159.057 366.643h-32.47l31.1-93.3c.755-2.266 1.37-2.167 1.37.223v93.077z" vector-effect="non-scaling-stroke" class="C"/></g></g><g class="F C E G J"><path vector-effect="non-scaling-stroke" d="M1159.057 323.35h-17.317"/><path vector-effect="non-scaling-stroke" d="M1159.057 323.35l-32.47 43.292"/></g><path d="M1159.057 269.236V799.56h-32.47V366.643l32.47-97.407z" fill="none" vector-effect="non-scaling-stroke" class="C H O"/><use xlink:href="#N" fill="#346763"/><use xlink:href="#N" fill="none" stroke="#346763" class="H K"/><path d="M1115.765 378.033h29.222a3.25 3.25 0 0 1 3.247 3.247v15.152a3.25 3.25 0 0 1-3.247 3.247h-29.222v-21.646z" class="D"/><path d="M1107.648 799.56h67.102c2.39 0 4.33 1.94 4.33 4.33V820.7c0 2.39-1.94 4.33-4.33 4.33h-67.102c-2.39 0-4.33-1.94-4.33-4.33v-16.802c0-2.39 1.94-4.33 4.33-4.33z" class="I"/><g stroke="#333" class="C H L Q"><path vector-effect="non-scaling-stroke" d="M828.417 755.272v69.267m75.76-69.267v69.267"/><path vector-effect="non-scaling-stroke" d="M828.417 813.716h75.76"/></g><use xlink:href="#O" class="I"/><use xlink:href="#O" class="D"/><clipPath id="A"><use xlink:href="#O" class="D"/></clipPath><g clip-path="url(#A)" class="P"><path d="M812.04 759.6h18.038l-6.928 32.47H805.1l6.928-32.47zm32.467 0h18.04l-6.928 32.47h-18.04l6.928-32.47zm32.47 0h18.038l-6.928 32.47h-18.038l6.928-32.47zm32.47 0h18.038l-6.928 32.47h-18.038l6.928-32.47z"/></g><g stroke="#333" class="C L Q"><path vector-effect="non-scaling-stroke" d="M579.5 755.272v69.267m75.75-69.267v69.267" stroke-width="4"/><path vector-effect="non-scaling-stroke" d="M579.5 813.716h75.76" class="H"/></g><use xlink:href="#P" class="I"/><use xlink:href="#P" class="D"/><clipPath id="B"><use xlink:href="#P" class="D"/></clipPath><g clip-path="url(#B)" class="P"><path d="M563.112 759.6h18.038l-6.928 32.47h-18.04l6.93-32.47zm32.468 0h18.04l-6.93 32.47h-18.038l6.928-32.47zm32.47 0h18.038l-6.928 32.47h-18.04l6.928-32.47zm32.468 0h18.038l-6.928 32.47H653.6l6.928-32.47z"/></g><path d="M1203.916 813.28l19.593-58.777c.566-1.7 1.486-1.7 2.053 0l19.592 58.777c.567 1.7 2.482 3.08 4.274 3.08h1.46c2.18 0 3.95 1.77 3.95 3.95v2.923c0 2.18-1.77 3.95-3.95 3.95h-52.707c-2.18 0-3.95-1.77-3.95-3.95v-2.923c0-2.18 1.77-3.95 3.95-3.95h1.46c1.792 0 3.707-1.38 4.273-3.08z" class="P"/><clipPath id="C"><path d="M1203.916 813.28l19.935-59.804c.378-1.133.99-1.133 1.37 0l19.934 59.804c.567 1.7 2.482 3.08 4.274 3.08h1.46c2.18 0 3.95 1.77 3.95 3.95v2.923c0 2.18-1.77 3.95-3.95 3.95h-52.707c-2.18 0-3.95-1.77-3.95-3.95v-2.923c0-2.18 1.77-3.95 3.95-3.95h1.46c1.792 0 3.707-1.38 4.273-3.08z" class="D"/></clipPath><g clip-path="url(#C)" class="I"><path d="M1192.067 804.456h64.938v9.74h-64.938zm-2.165-18.94h64.938v9.74h-64.938z"/></g><path d="M850.062 825.567c14.863-24.28 41.633-40.496 72.16-40.496s57.3 16.215 72.16 40.496H850.062z" fill="#f7e177" class="R"/><clipPath id="D"><path d="M922.223 771.184h121.314v54.382H922.223z" class="D"/></clipPath><g clip-path="url(#D)"><path d="M850.062 825.333c14.863-23.983 41.633-40 72.16-40s57.3 16.017 72.16 40H850.062z" fill-opacity=".12"/></g><path d="M885.274 806.66h5.95c.853 0 1.545.553 1.545 1.233h0c0 .68-.692 1.233-1.545 1.233h-5.95c-.853 0-1.546-.552-1.546-1.233h0c0-.68.693-1.233 1.546-1.233zm8.892-8.627h4.6c.77 0 1.397.552 1.397 1.232h0c0 .68-.626 1.233-1.397 1.233h-4.6c-.772 0-1.398-.552-1.398-1.233h0c0-.68.626-1.232 1.398-1.232zm5.752 14.792h4.6c.772 0 1.398.552 1.398 1.233h0c0 .68-.626 1.232-1.398 1.232h-4.6c-.77 0-1.397-.552-1.397-1.232h0c0-.68.626-1.233 1.397-1.233zm11.25-6.165h2.648c.63 0 1.142.512 1.142 1.142v.183a1.14 1.14 0 0 1-1.142 1.141h-2.648a1.14 1.14 0 0 1-1.141-1.141v-.183a1.14 1.14 0 0 1 1.141-1.142zm18.336 0h4.6c.77 0 1.398.553 1.398 1.233h0c0 .68-.627 1.233-1.398 1.233h-4.6c-.77 0-1.398-.552-1.398-1.233h0c0-.68.627-1.233 1.398-1.233zm15.672-9.45h2.648a1.14 1.14 0 0 1 1.141 1.141v.183a1.14 1.14 0 0 1-1.141 1.141h-2.648a1.14 1.14 0 0 1-1.141-1.141v-.183a1.14 1.14 0 0 1 1.141-1.141zm12.19 18.1h3.94c.727 0 1.318.553 1.318 1.233h0c0 .68-.6 1.233-1.318 1.233h-3.94c-.727 0-1.318-.553-1.318-1.233h0c0-.68.6-1.233 1.318-1.233zm-8-6.995h5.95c.853 0 1.545.552 1.545 1.233h0c0 .68-.692 1.232-1.545 1.232h-5.95c-.853 0-1.546-.552-1.546-1.232h0c0-.68.693-1.233 1.546-1.233zm-79.297 4.52h2.648a1.14 1.14 0 0 1 1.142 1.141v.183a1.14 1.14 0 0 1-1.142 1.141h-2.648a1.14 1.14 0 0 1-1.141-1.141v-.183a1.14 1.14 0 0 1 1.141-1.141z" class="M"/><path d="M948.296 825.822c21.22-34.667 59.443-57.82 103.03-57.82s81.81 23.152 103.03 57.82h-206.06z" fill="#f7e177" class="R"/><clipPath id="E"><path d="M1051.326 768.003h173.2v57.82h-173.2z" class="D"/></clipPath><g clip-path="url(#E)"><path d="M948.296 826.327c21.22-34.972 59.443-58.327 103.03-58.327s81.81 23.355 103.03 58.327h-206.06z" fill-opacity=".12"/></g><path d="M1002.536 802.29h7.835c1.123 0 2.035.728 2.035 1.624h0c0 .896-.912 1.623-2.035 1.623h-7.835c-1.123 0-2.035-.727-2.035-1.623h0c0-.896.912-1.624 2.035-1.624z" class="M"/><use xlink:href="#Q" class="M"/><use xlink:href="#Q" x="7.576" y="19.481" class="M"/><path d="M1036.637 802.3h3.488c.83 0 1.503.674 1.503 1.503v.24c0 .83-.673 1.503-1.503 1.503h-3.488c-.83 0-1.503-.673-1.503-1.503v-.24c0-.83.674-1.503 1.503-1.503zm24.15 0h6.06c1.016 0 1.84.728 1.84 1.624h0c0 .896-.824 1.623-1.84 1.623h-6.06c-1.016 0-1.84-.727-1.84-1.623h0c0-.896.825-1.624 1.84-1.624zm20.64-12.445h3.488c.83 0 1.503.673 1.503 1.503v.24c0 .83-.674 1.503-1.503 1.503h-3.488c-.83 0-1.503-.674-1.503-1.503v-.24c0-.83.673-1.503 1.503-1.503zm16.053 23.8h5.188c.957 0 1.735.728 1.735 1.624h0c0 .896-.778 1.623-1.735 1.623h-5.188c-.958 0-1.735-.727-1.735-1.623h0c0-.896.777-1.624 1.735-1.624zm-10.523-9.2h7.835c1.123 0 2.035.727 2.035 1.623h0c0 .896-.912 1.624-2.035 1.624h-7.835c-1.123 0-2.035-.728-2.035-1.624h0c0-.896.912-1.623 2.035-1.623zm-104.432 5.952h3.488c.83 0 1.503.674 1.503 1.503v.24c0 .83-.674 1.503-1.503 1.503h-3.488c-.83 0-1.503-.673-1.503-1.503v-.24c0-.83.673-1.503 1.503-1.503z" class="M"/><path d="M404.445 825.02h1021.1a8.95 8.95 0 0 1 8.945 8.945v2.674a8.95 8.95 0 0 1-8.945 8.945h-1021.1a8.95 8.95 0 0 1-8.945-8.945v-2.674a8.95 8.95 0 0 1 8.945-8.945z" fill="#a66"/><defs ><path id="G" d="M525.375 435.394h23.8c2.4 0 4.33 1.94 4.33 4.33v56.28c0 2.39-1.94 4.33-4.33 4.33h-23.8c-2.39 0-4.33-1.94-4.33-4.33v-56.28c0-2.39 1.94-4.33 4.33-4.33z"/><path id="H" d="M579.5 435.394h23.8c2.39 0 4.33 1.94 4.33 4.33v56.28c0 2.39-1.94 4.33-4.33 4.33h-23.8c-2.4 0-4.33-1.94-4.33-4.33v-56.28c0-2.39 1.94-4.33 4.33-4.33z"/><path id="I" d="M633.604 435.394h23.81c2.39 0 4.33 1.94 4.33 4.33v56.28c0 2.39-1.94 4.33-4.33 4.33h-23.81c-2.39 0-4.33-1.94-4.33-4.33v-56.28c0-2.39 1.94-4.33 4.33-4.33z"/><path id="J" d="M1073.015 439.723v56.28c0 2.39-1.94 4.33-4.33 4.33h-23.8c-2.39 0-4.33-1.94-4.33-4.33v-56.28c0-2.39 1.94-4.33 4.33-4.33h23.8c2.4 0 4.33 1.94 4.33 4.33z"/><path id="K" d="M1174.75 521.978h56.28a4.33 4.33 0 0 1 4.329 4.329v23.8a4.33 4.33 0 0 1-4.329 4.329h-56.28a4.33 4.33 0 0 1-4.329-4.329v-23.8a4.33 4.33 0 0 1 4.329-4.329z"/><path id="L" d="M1174.75 608.56h56.28c2.39 0 4.33 1.94 4.33 4.33v23.81c0 2.39-1.94 4.33-4.33 4.33h-56.28c-2.39 0-4.33-1.94-4.33-4.33V612.9c0-2.39 1.94-4.33 4.33-4.33z"/><path id="M" d="M1176.793 565.27h127.953a6.38 6.38 0 0 1 6.373 6.373v19.724c0 3.517-2.856 6.372-6.373 6.372h-127.953c-3.517 0-6.372-2.855-6.372-6.372v-19.724c0-3.517 2.855-6.373 6.372-6.373z"/><path id="N" d="M1155.8 367.2h-36.798a3.25 3.25 0 0 0-3.247 3.247v36.798a3.25 3.25 0 0 0 3.247 3.247h36.798a3.25 3.25 0 0 0 3.247-3.247v-36.798a3.25 3.25 0 0 0-3.247-3.247z"/><path id="O" d="M821.9 759.6h88.796a4.31 4.31 0 0 1 4.305 4.305v23.86a4.31 4.31 0 0 1-4.305 4.305H821.9a4.31 4.31 0 0 1-4.305-4.305v-23.86a4.31 4.31 0 0 1 4.305-4.305z"/><path id="P" d="M572.97 759.6h88.797a4.31 4.31 0 0 1 4.305 4.305v23.86a4.31 4.31 0 0 1-4.305 4.305H572.97a4.31 4.31 0 0 1-4.304-4.305v-23.86a4.31 4.31 0 0 1 4.304-4.305z"/><path id="Q" d="M1014.247 790.927h6.06c1.016 0 1.84.728 1.84 1.624h0c0 .896-.825 1.623-1.84 1.623h-6.06c-1.016 0-1.84-.727-1.84-1.623h0c0-.896.825-1.624 1.84-1.624z"/></defs></svg>